<svg id="Layer_1" data-name="Layer 1" xmlns="http://www.w3.org/2000/svg" width="180.55mm" height="169.46mm" viewBox="0 0 511.79 480.36"><defs><style>.cls-1{fill:#feda45;}</style></defs><title>binoculars</title><path class="cls-1" d="M885.1,481.22c-18.84-76.46-37-153.1-54.89-229.77-3.83-16.37-13.19-28-27.83-34.18-10.54-4.44-13.11-10.18-12.7-21,.78-20.33-8.73-35.73-26.76-45.52-31.83-17.28-72.4,6.49-72.86,42.67-.1,7.83-.14,15.67,0,23.49a8.29,8.29,0,0,1-3.23,7.16,75.13,75.13,0,0,0-11.39,12.46c-4.87,6.85-6,15-5.56,22.49-12.22-1.23-24.1-3.36-36-3.35s-23.73,2.15-35.91,3.39c1.34-14.43-5.25-26-16.84-35-2.59-2-3.23-4.09-3.27-7.12-.15-10.64.77-21.53-1.22-31.85-4-20.69-17.41-33.91-37.79-38.71-19.72-4.64-36.47,1.8-49.57,17.17-9.37,11-12.44,24.12-11.21,38.22.59,6.74-.63,11.54-8.11,13-1.73.34-3.34,1.47-4.93,2.36C452.14,224.35,442,233.83,438.4,249q-24.09,101.6-48.34,203.16C386,469.41,382,486.71,378,504v23a8.17,8.17,0,0,1,1,2.17,110.89,110.89,0,0,0,11.13,36c21.44,43.57,74.31,68.61,121.31,57.36C563.74,610,598,566.75,598,513c0-22.33.07-44.66-.14-67,0-3.54,1.16-5,4.36-5.86a113.3,113.3,0,0,1,63.49,0c3.21.93,4.37,2.36,4.34,5.88-.16,24.16-.59,48.34.25,72.48a108.56,108.56,0,0,0,5.61,31.21c17.75,51.5,65.56,81.5,119.41,73.9,41.72-5.89,70.84-29.69,87-68.61C892.27,531,891.31,506.44,885.1,481.22ZM507.89,173.06c8.92-8,19.4-10.12,30.6-5.88,10.76,4.07,17.39,12.08,18.77,23.67.78,6.56.71,13.21,1.05,20.52-20-6.43-39.67-7.67-60.06-4.93C497.33,193.49,498.05,181.82,507.89,173.06Zm70,342.42c-1,51.23-40.75,88.9-90.55,89.51-50-1.16-89.49-40.29-89.19-90.78.3-50.06,41.71-90.2,90.66-89.19C538.51,426,578.88,466.71,577.91,515.48Zm.07-71V451c-39.91-53.82-114.71-60.09-162-19.68,2.22-9.67,4.21-18.6,6.33-27.49,11.84-49.6,23.87-99.16,35.45-148.81,2.48-10.65,9.43-16.79,18.41-20.8,27.93-12.48,56.12-12.53,84,.18,12,5.47,18.2,14.25,18.07,28.59C577.65,323.48,578,384,578,444.44Zm92-24.21a144.15,144.15,0,0,0-72,0c0-5.77-.16-10.92.12-16a4.62,4.62,0,0,1,2.63-3.28c22.17-7,44.41-7.1,66.57,0a4.63,4.63,0,0,1,2.57,3.33C670.18,409.38,670,414.53,670,420.23ZM598,326c0-3.06.56-4.73,3.88-5.68,21.49-6.16,42.93-6.38,64.33.17,1.55.47,3.66,2.62,3.68,4,.24,18,.14,36,.11,53.94a8,8,0,0,1-.48,1.72c-23.65-6.2-47.32-6-71.51.08,0-8.72,0-17,0-25.28C598,345.33,598.12,335.67,598,326Zm72.11-39.6c-.27,4.14-.1,8.32-.15,12.48,0,.3-.24.6-.06.18-12.1-1.22-23.95-3.34-35.8-3.34s-23.71,2.11-36.09,3.35c0-3.25.38-6.95-.09-10.53-.71-5.45,1.39-7.84,6.7-9.14a120,120,0,0,1,61.08.68C669.38,281.09,670.31,282.94,670.08,286.42Zm45.65-108.71A29.79,29.79,0,0,1,748,166.27c12.64,3.54,21,14.3,22,28.41.24,3.62,0,7.27,0,11.79-20.52-2.76-40.12-1.53-59.79,4.73C710,199.37,708.46,187.83,715.72,177.71Zm-26,84.54c-.11-13.49,6-21.59,17-27.3,16.1-8.39,33.42-10.68,51.31-9.54A88.88,88.88,0,0,1,793.41,235c9,4.61,14.94,11.26,17.37,21.69,13.31,57.25,27.07,114.4,40.67,171.59.19.78.29,1.58.6,3.37-25.33-20.5-53.36-29.67-85.07-25.75s-56.85,19.25-77,45.79v-6.54C690,384.16,690.26,323.2,689.77,262.25Zm180.15,254c-1.34,51.2-42.46,89.46-91.29,88.57-51.45-.95-89.2-42.69-88.43-90.82.82-51.57,42.35-89.79,91.48-88.74C831.77,426.3,871.33,467.62,869.92,516.23Z" transform="translate(-378 -144.87)"/><path class="cls-1" d="M502.58,446.69c-27.55-6-50.82,3-69.17,24.46-4.85,5.66-4.79,11.88-.07,15.92S444,489.79,448.95,484c13-15.23,29.42-21.91,49-17.73s32.5,16.63,38.13,36.12c9.25,32-18,65.95-53.28,62.14-14.47-1.56-26-8.55-35-20-4.25-5.38-10.43-6.15-14.9-2.48-4.7,3.85-5.07,9.53-.74,15.08,14.09,18.08,32.72,27.16,56.7,28,2.68-.3,6.49-.61,10.27-1.15,39.09-5.59,66.59-45.58,57.3-83.82C549.45,471.51,531.33,453,502.58,446.69Z" transform="translate(-378 -144.87)"/><path class="cls-1" d="M437.94,515a10,10,0,1,0-9.75,9.92A10,10,0,0,0,437.94,515Z" transform="translate(-378 -144.87)"/><path class="cls-1" d="M828.71,540.74a18.41,18.41,0,0,0-9.53,5.29c-13.2,15-29.49,21.88-49.06,17.71s-32.54-16.54-38.17-36c-9.32-32.24,18.13-66.2,53.64-62.22,14.11,1.58,25.33,8.37,34.25,19.35,4.59,5.64,10.63,6.38,15.25,2.35s4.7-9.71.23-15.15c-18.09-22-41.46-30.74-69.27-25.61-35,6.45-59.46,40.06-55.87,75.36C713.84,557.68,744,585,780.23,586c7.59-1.64,15.35-2.72,22.72-5,13.37-4.22,24.11-12.52,32.72-23.55,2.64-3.38,3.55-7.19,1.71-11.22C835.71,542.58,832.52,539.95,828.71,540.74Z" transform="translate(-378 -144.87)"/><path class="cls-1" d="M830.06,514.93a9.94,9.94,0,1,0,9.76-9.88A10,10,0,0,0,830.06,514.93Z" transform="translate(-378 -144.87)"/></svg>