<?xml version="1.0" encoding="iso-8859-1"?>
<!-- Generator: Adobe Illustrator 19.0.0, SVG Export Plug-In . SVG Version: 6.00 Build 0)  -->
<svg xmlns="http://www.w3.org/2000/svg" xmlns:xlink="http://www.w3.org/1999/xlink" version="1.1" id="Capa_1" x="0px" y="0px" viewBox="0 0 512.003 512.003" style="enable-background:new 0 0 512.003 512.003;" xml:space="preserve" width="512px" height="512px">
<g>
	<g>
		<path d="M440.589,335.145c-0.13-0.63-0.32-1.26-0.57-1.87c-0.25-0.6-0.56-1.18-0.92-1.72c-0.37-0.55-0.79-1.06-1.25-1.52    c-0.46-0.46-0.97-0.88-1.52-1.25c-0.54-0.36-1.12-0.67-1.721-0.92c-0.609-0.25-1.239-0.44-1.869-0.57    c-1.301-0.26-2.62-0.26-3.91,0c-0.641,0.13-1.27,0.32-1.87,0.57c-0.61,0.25-1.19,0.56-1.73,0.92c-0.55,0.37-1.06,0.79-1.52,1.25    c-0.46,0.46-0.88,0.97-1.24,1.52c-0.36,0.54-0.67,1.12-0.92,1.72c-0.25,0.61-0.44,1.24-0.57,1.87    c-0.13,0.65-0.199,1.31-0.199,1.96s0.069,1.31,0.199,1.95c0.13,0.64,0.32,1.27,0.57,1.87c0.25,0.61,0.56,1.19,0.92,1.73    c0.36,0.55,0.78,1.06,1.24,1.52c0.46,0.46,0.97,0.88,1.52,1.24c0.54,0.36,1.12,0.67,1.73,0.92c0.599,0.25,1.229,0.44,1.87,0.57    c0.639,0.13,1.3,0.2,1.95,0.2c0.649,0,1.309-0.07,1.96-0.2c0.63-0.13,1.26-0.32,1.869-0.57c0.601-0.25,1.181-0.56,1.721-0.92    c0.55-0.36,1.06-0.78,1.52-1.24c0.46-0.46,0.88-0.97,1.25-1.52c0.36-0.54,0.67-1.12,0.92-1.73c0.25-0.6,0.44-1.23,0.57-1.87    c0.129-0.64,0.19-1.3,0.19-1.95C440.779,336.455,440.719,335.795,440.589,335.145z" fill="#FFDA44"/>
	</g>
</g>
<g>
	<g>
		<path d="M92.023,335.145c-0.13-0.63-0.319-1.26-0.569-1.87c-0.25-0.6-0.561-1.18-0.92-1.72c-0.36-0.55-0.78-1.06-1.24-1.52    c-0.46-0.46-0.971-0.88-1.521-1.25c-0.54-0.36-1.12-0.67-1.729-0.92c-0.6-0.25-1.23-0.44-1.87-0.56c-1.29-0.27-2.62-0.26-3.91,0    c-0.63,0.12-1.26,0.31-1.87,0.56c-0.6,0.25-1.18,0.56-1.72,0.92c-0.55,0.37-1.061,0.79-1.521,1.25c-0.46,0.46-0.88,0.97-1.25,1.52    c-0.359,0.54-0.67,1.12-0.92,1.72c-0.25,0.61-0.439,1.24-0.569,1.87c-0.129,0.65-0.19,1.31-0.19,1.96s0.06,1.31,0.19,1.95    c0.13,0.64,0.319,1.27,0.569,1.87c0.25,0.61,0.561,1.19,0.92,1.73c0.37,0.55,0.79,1.06,1.25,1.52c0.46,0.46,0.971,0.88,1.521,1.24    c0.54,0.36,1.12,0.67,1.72,0.92c0.61,0.25,1.24,0.45,1.87,0.57c0.65,0.13,1.31,0.2,1.96,0.2c0.65,0,1.311-0.07,1.95-0.2    c0.64-0.12,1.269-0.32,1.87-0.57c0.609-0.25,1.189-0.56,1.729-0.92c0.55-0.36,1.061-0.78,1.521-1.24    c0.46-0.46,0.88-0.97,1.24-1.52c0.359-0.54,0.67-1.12,0.92-1.73c0.25-0.6,0.439-1.23,0.569-1.87c0.13-0.64,0.2-1.3,0.2-1.95    C92.223,336.455,92.153,335.795,92.023,335.145z" fill="#FFDA44"/>
	</g>
</g>
<g>
	<g>
		<path d="M476.215,390.718l-3.108-0.939l3.109-0.967c16.566-5.006,25.972-22.557,20.967-39.123l-18.074-59.833    c-2.425-8.026-7.83-14.628-15.22-18.589c-7.392-3.961-15.883-4.806-23.922-2.377l-63.735,19.363    c11.251-17.389,17.982-38.432,19.769-62.262c4.113-54.847-19.007-119.945-57.529-161.988c-2.25-2.456-5.576-3.626-8.867-3.132    c-3.293,0.498-6.122,2.602-7.546,5.613c-5.162,10.914-10.589,22.317-15.552,32.667c-5.823-19.764-17.167-34.898-20.62-39.201    c-2.581-3.215-15.578-20.761-18.022-50.477c-0.471-5.717-5.354-9.859-11.127-9.444c-10.295,0.753-29.771,23.063-41.913,43.3    c-10.728,17.88-22.632,44.606-26.183,78.858c-0.609-0.942-1.221-1.888-1.833-2.832c-5.748-8.875-10.381-15.953-13.771-21.038    c-2.046-3.068-3.672-5.459-4.832-7.105c-2.31-3.276-4.938-6.988-10.486-6.842c-3.508,0.093-6.73,2.031-8.458,5.085    c-29.255,51.734-39.517,110.684-28.156,161.729c2.978,13.399,8.401,25.866,16.054,37.079L73.02,268.886    c-8.026-2.427-16.516-1.579-23.906,2.381c-7.391,3.961-12.796,10.563-15.22,18.589L15.82,349.689    c-5.006,16.568,4.401,34.118,20.968,39.124l2.654,0.802l-3.654,1.104c-16.567,5.006-25.974,22.557-20.968,39.123l18.074,59.834    c2.425,8.026,7.83,14.628,15.221,18.589c4.626,2.479,9.683,3.738,14.787,3.738c3.05,0,6.117-0.45,9.119-1.356l183.981-55.593    l183.982,55.593c3.003,0.907,6.069,1.356,9.119,1.356c5.104,0,10.161-1.259,14.787-3.738c7.391-3.961,12.796-10.563,15.22-18.589    l9.032-29.899c0.002-0.005,0.003-0.01,0.005-0.015c0.001-0.004,0.002-0.009,0.004-0.013l9.034-29.906    C502.188,413.274,492.782,395.724,476.215,390.718z M445.767,288.031c2.912-0.881,5.993-0.572,8.674,0.864    c2.682,1.437,4.643,3.832,5.522,6.744l18.075,59.834c1.815,6.011-1.598,12.379-7.686,14.219l-31.399,9.768l-56.886-17.189    l9.587-2.897c5.287-1.598,8.277-7.178,6.68-12.465c-1.598-5.287-7.181-8.274-12.465-6.68l-38.374,11.595l-56.005-16.923    L445.767,288.031z M236.805,211.791c7.322-11.015,14.532-20.927,19.733-27.862c21.853,28.982,49.774,72.375,49.774,91.498    c0,15.929-7.659,30.932-20.529,40.303l-5.983,1.818c1.062-4.874,1.605-9.871,1.605-14.903    C281.405,279.519,258.041,241.534,236.805,211.791z M261.406,302.645c0,7.531-1.701,14.949-4.946,21.67l-29.822-9.011    c-12.519-9.398-19.947-24.19-19.947-39.877c0-5.534,2.612-18.399,18.559-45.304C248.064,263.038,261.406,289.649,261.406,302.645z     M159.192,113.621c7.806,11.842,19.603,30.123,30.372,46.999c2.456,3.847,7.201,5.543,11.538,4.125    c4.336-1.418,7.163-5.592,6.871-10.145c-2.792-43.52,10.321-76.891,21.814-97.221c7.367-13.034,14.918-22.507,20.764-28.755    c5.328,24.27,16.038,39.23,19.741,43.844c4.675,5.825,27.472,36.365,17.086,65.6c-1.701,4.788,0.459,10.091,5.021,12.327    c4.563,2.235,10.076,0.694,12.819-3.582c2.712-4.23,18.177-36.515,28.24-57.688c29.12,37.918,45.967,90.474,42.6,135.37    c-2.358,31.458-14.575,56.945-35.327,73.706c-0.466,0.377-0.89,0.787-1.27,1.224l-19.967,6.066    c4.425-9.268,6.818-19.52,6.818-30.063c0-35.518-55.653-106.169-61.999-114.108c-1.898-2.375-4.772-3.756-7.813-3.756    c-3.039,0-5.913,1.383-7.811,3.757c-0.678,0.847-16.758,21.023-32.421,45.326c-0.001,0.002-0.003,0.004-0.004,0.006    c-19.9,30.899-29.573,53.396-29.573,68.775c0,10.455,2.354,20.626,6.708,29.833l-17.3-5.227    c-18.524-13.72-30.774-32.077-35.466-53.188C131.353,205.159,138.133,157.392,159.192,113.621z M40.194,444.68l-6.23-20.623    c-1.815-6.01,1.598-12.378,7.609-14.194l32.441-9.803l56.921,17.2L40.194,444.68z M66.235,491.5    c-2.912,0.88-5.993,0.572-8.674-0.864c-2.681-1.437-4.643-3.833-5.522-6.744l-6.062-20.067l119.529-36.118l55.923,16.898    L66.235,491.5z M478.037,424.06l-6.146,20.345L127.133,340.228c-5.287-1.595-10.867,1.394-12.465,6.68s1.393,10.868,6.68,12.465    l344.76,104.175l-6.145,20.345c-0.88,2.912-2.842,5.307-5.522,6.744c-2.683,1.437-5.763,1.744-8.674,0.864L42.573,369.667    c-6.011-1.816-9.424-8.184-7.607-14.195l18.074-59.833c0.88-2.912,2.842-5.307,5.522-6.744c1.679-0.899,3.514-1.356,5.365-1.356    c1.106,0,2.22,0.163,3.309,0.493L470.43,409.865C476.441,411.681,479.854,418.049,478.037,424.06z" fill="#FFDA44"/>
	</g>
</g>
<g>
</g>
<g>
</g>
<g>
</g>
<g>
</g>
<g>
</g>
<g>
</g>
<g>
</g>
<g>
</g>
<g>
</g>
<g>
</g>
<g>
</g>
<g>
</g>
<g>
</g>
<g>
</g>
<g>
</g>
</svg>
