<svg id="Layer_1" data-name="Layer 1" xmlns="http://www.w3.org/2000/svg" width="180.62mm" height="156.51mm" viewBox="0 0 512 443.64"><defs><style>.cls-1{fill:#feda45;}</style></defs><title>callendar</title><path class="cls-1" d="M454,588q0-133.5,0-267c2.51-3.34,5.33-6.2,10-4.44s5.11,5.6,5,9.86c-.13,5.28,0,10.56,0,16H896c0-19.11.39-37.9-.19-56.66-.23-7.5-8-14.79-15.52-15.58-6.52-.69-13.18-.14-20.35-.14,0,7.06.27,13.7-.05,20.32-.82,16.79-17.59,30-34.13,27.06-15.35-2.71-25.13-14.59-25.5-31.1-.12-5.43,0-10.86,0-16.54H761.93c0,6.48.18,12.3,0,18.09-.73,19.6-18,33.37-36.41,29.17a30,30,0,0,1-23.39-28.72c-.17-6.1,0-12.2,0-18.26H663c0,7.79.61,15.3-.13,22.68-1.54,15.41-17.91,27.33-33.14,24.74s-25.12-13.45-25.83-29c-.28-6.08,0-12.19,0-18.44H565c0,6.71.18,13.17,0,19.61-.52,15.32-13.2,27.63-28.89,28.23-14.78.57-28.4-10.91-30.08-25.79-.81-7.21-.8-14.51-1.19-22.2-5.85,0-11.48-.2-17.09,0A19.29,19.29,0,0,0,470,284.4c-.76,3-.28,6.4-1.22,9.34-.79,2.46-2.41,5.7-4.45,6.44-2.27.82-5.44-.7-8.17-1.42-.83-.22-1.46-1.15-2.19-1.76q0-6.5,0-13c.46-1.24.94-2.47,1.36-3.72,5.09-15,15.22-23.88,31.21-25.37,6.06-.56,12.17-.6,18.29-.88.38-7.84.33-15.34,1.2-22.73,1.81-15.38,17.5-27.05,32.66-24.75,16,2.42,26,13.83,26.32,30.09.11,5.77,0,11.55,0,17.26H604c0-6.92-.33-13.42.07-19.86.76-12.09,7.09-20.71,18.1-25.37,10.85-4.59,21.24-2.86,30.45,4.52,8.18,6.55,10.93,15.58,11,25.67,0,5.08,0,10.16,0,15.5H702.1c0-7.08-.23-13.23,0-19.37a29.79,29.79,0,0,1,45.16-24.38c10,6,14.41,15.32,14.58,26.78.09,5.58,0,11.16,0,16.64h38.26c0-3.42-.31-6.58.06-9.66.85-7,.75-14.56,3.36-20.93C809,210.34,823.31,204,837,207c13.25,3,22.69,14.81,23,29,.12,5.95,0,11.9,0,18.34,4.58,0,8.55-.17,12.51,0,4.13.23,8.39.29,12.34,1.36C902,260.4,911.71,274,911.74,293.09c.07,40.16.14,80.32-.05,120.48,0,4.67,1.33,7.54,5,10.36,20.87,15.88,35.44,36.38,43.13,61.48C962.5,494.09,964,503.13,966,512v24a8.37,8.37,0,0,0-.92,2.22c-1.3,12.69-4.32,25-10.07,36.33-4.86,9.59-10.82,18.65-16.7,27.69-2.86,4.4-7.8,5.05-11.23,2.39-3.6-2.8-3.83-6.89-.63-11.53.76-1.1,1.6-2.13,2.38-3.21,17.89-24.55,25.24-52,20.92-82a110.93,110.93,0,0,0-125.87-94.07c-63,9.19-105.86,70.09-92.76,132.53,13.91,66.28,84.15,105,147.56,81,9.22-3.5,17.64-9.15,26.39-13.87,3.36-1.81,7.06-2.65,9.56.47a11.63,11.63,0,0,1,1.95,8.06c-.24,1.83-2.67,3.68-4.51,5a125.17,125.17,0,0,1-151.33-5.42,17.17,17.17,0,0,0-11.74-4q-127.47.15-254.94.1c-11,0-21.71-1.76-29.1-10.4C460.25,601.7,457.58,594.46,454,588Zm192.19,13.73h94.57c-16.49-21.08-25-44.46-26.92-70.36H646.19Zm-104.26-157H469.41v70.89h72.53Zm88.72,70.89V444.75H558v70.86ZM542,358.27H469.28v70.6H542Zm16.1-.12v70.67h72.65V358.15Zm161,70.75v-70.6H646.35v70.6ZM630.82,531.29H558.09v70.53h72.74Zm15.6-86.7v71H713c6.4-23.52,7.55-47,5.78-71ZM541.89,602V531.29H469.11c0,17.47-.35,34.62.13,51.75.28,10,7.77,18.54,16.83,18.82C504.52,602.42,523,602,541.89,602Zm193-172.89c6.9,0,13.21.1,19.51-.08a7.09,7.09,0,0,0,3.92-1.72A132.76,132.76,0,0,1,805,402.24c1.2-.36,2.86-2,2.88-3.09.2-13.59.13-27.19.13-40.83H734.94Zm88.35-30.84c25.41-3,49.45,1.12,72.7,12.18V358.2h-72.7ZM717.14,261.61h-.07c0,8.16-.08,16.32,0,24.48.12,9.84,6.25,16.59,14.88,16.58,8.4,0,14.66-6.62,14.76-16.19.17-16.32.33-32.65-.16-49a21.09,21.09,0,0,0-4.5-11.65c-3.89-4.88-9.85-5.4-15.56-3.3-6.35,2.33-9.16,7.56-9.32,14.06C717,245,717.14,253.28,717.14,261.61Zm-98.22.42q0,12.25,0,24.49c0,.33,0,.67,0,1,.19,8.67,6.45,15.14,14.65,15.16s14.52-6.3,14.59-15.12q.18-25.49,0-51c-.06-8.8-6.32-15.13-14.58-15.14S619,228,618.93,237C618.88,245.37,618.92,253.7,618.92,262Zm-98.29-.31q0,6.25,0,12.5c0,4.33-.1,8.67,0,13,.28,9.25,6.42,15.6,14.8,15.47S550,296,550,286.88q.1-24.75,0-49.49c-.06-9.26-6-15.72-14.38-15.92-8.67-.21-14.76,6.11-14.93,15.76C520.53,245.39,520.64,253.56,520.63,261.72Zm295-.17h-.09c0,8-.07,16,0,24a25.45,25.45,0,0,0,.9,7.37,14.07,14.07,0,0,0,15.69,9.46c7.5-1.06,12.65-6.81,12.73-14.85.16-16.65.13-33.3.08-50,0-9.51-6.08-16-14.73-16s-14.39,6-14.59,15.54C815.53,245.23,815.67,253.39,815.67,261.55ZM735,444.67v8.67l6.27-8.67Z" transform="translate(-454 -206.15)"/><path class="cls-1" d="M735,444.67h6.27L735,453.34Z" transform="translate(-454 -206.15)"/><path class="cls-1" d="M839.54,429.53c53.39,1.14,95.64,45.43,93.26,98.57-2.09,46.63-39.67,84.73-86.13,88.12a93.08,93.08,0,0,1-98.09-75.15c-4.42-23.34-.12-45.31,11.85-65.78,2.55-4.37,6.72-5.76,10.53-3.77s5.22,6.51,2.59,11.2c-5.75,10.27-9.76,21-10.95,32.83a77.67,77.67,0,0,0,58,83.41c46.28,12.15,93.19-21.07,96.59-69,2.32-32.6-11-58.09-39.36-74-28.12-15.81-56.43-13.76-83.33,4.38-.55.37-1.06.81-1.61,1.18-4.86,3.25-9.13,2.86-11.81-1.07-2.51-3.68-1.73-8.37,2.93-11.11,8.56-5,17.12-10.46,26.39-13.75S829.79,431.45,839.54,429.53Z" transform="translate(-454 -206.15)"/><path class="cls-1" d="M847.44,527.09h23.94c8.33,0,16.67,0,25,0,6.26,0,9.63,2.81,9.6,7.69s-3.15,7.37-9.25,7.39q-27.5.1-55,0c-6.72,0-9.5-2.73-9.54-9.37-.11-18.17-.06-36.33-.07-54.5,0-.17,0-.33,0-.5.29-5.83,3.08-9.19,7.7-9.26s7.59,3.24,7.64,9.16c.1,11.83,0,23.66,0,35.5C847.43,517.68,847.44,522.14,847.44,527.09Z" transform="translate(-454 -206.15)"/></svg>