<svg id="Layer_1" data-name="Layer 1" xmlns="http://www.w3.org/2000/svg" width="369.25mm" height="82.89mm" viewBox="0 0 1046.71 234.97"><defs><style>.cls-1{fill:#4264fa;}.cls-2{fill:#4364fa;}.cls-3{fill:#4365fa;}</style></defs><title>mapbox</title><path class="cls-1" d="M46.65,434.26c-.09-64.9,52.4-117.37,117.6-117.54s118,52.58,117.93,117.55a117.77,117.77,0,0,1-235.54,0Zm59.17,29.41c.49,7.13.71,14.29,1.56,21.38.81,6.79-.75,5.24,6.06,6a174.7,174.7,0,0,0,49.36-1c17.81-3,34.48-8.81,49.1-19.76,15.57-11.67,24.58-26.93,24.62-46.63,0-20.33-8.54-36.7-24.56-49-19.65-15.13-46.32-16.66-66.81-3.87-13,8.15-21.41,20.35-27.66,34C109,423.5,106.13,443.32,105.82,463.67Z" transform="translate(-46.65 -316.71)"/><path class="cls-2" d="M361.25,394.59c17.22-21.69,49.24-15.43,60.77,5.61a97.39,97.39,0,0,1,6.33-8.27c10.09-10.71,25.15-13.76,39.21-8.15,13.85,5.53,22.78,18.19,22.84,32.69.09,21.37.08,42.75.09,64.12,0,3.15-1,4.14-4.07,4.15q-7.68,0-15.37,0c-3.39,0-4.33-1-4.33-4.48q0-28.09,0-56.17c0-7-2.36-13-7.82-17.5-11.13-9.14-26.37-4.29-31.41,10a27.26,27.26,0,0,0-1.52,8.78c-.06,17.93.08,35.86.16,53.78,0,4.95-.57,5.55-5.4,5.55H407c-3.74,0-4.54-.78-4.54-4.45q0-27.82,0-55.64c0-5.65-1.4-10.84-5.08-15.24-9.91-11.83-27.14-9.26-33.42,5.21a32.19,32.19,0,0,0-2.57,12c-.27,17.75-.12,35.5-.12,53.26,0,4.22-.64,4.84-4.95,4.84-4.86,0-9.72,0-14.57,0-3,0-4-1-4-4q0-46.63,0-93.27c0-2.87,1-3.84,3.78-3.86q7.95-.06,15.9,0c2.83,0,3.74,1,3.79,3.86,0,1.15,0,2.3,0,3.44S361.25,393.08,361.25,394.59Z" transform="translate(-46.65 -316.71)"/><path class="cls-3" d="M793.08,395.32c3.61-2.63,6.83-5.4,10.43-7.53,21.21-12.54,47.73-7.17,63,12.61,19.12,24.73,13.61,61.53-11.78,78.66a47.8,47.8,0,0,1-59.59-4.59l-2.09-1.91c0,2.9,0,5.25,0,7.59,0,3.68-.89,4.6-4.46,4.61q-7.42,0-14.83,0c-3.44,0-4.39-1-4.39-4.41q0-27.28,0-54.57,0-39.07,0-78.14c0-4.23.68-4.91,4.9-4.91,4.86,0,9.71,0,14.57,0,3.31,0,4.22.9,4.22,4.26q0,22.65,0,45.3C793.08,393.25,793.08,394.22,793.08,395.32Zm61.41,38.86c-.3-2.36-.45-4.74-.93-7.06-3.95-19.1-24-29.86-41.49-22.35C797,411.21,789.4,429.14,795,445.09c4.79,13.66,17.16,21.67,29.92,20.9C842,465,854.31,451.32,854.49,434.18Z" transform="translate(-46.65 -316.71)"/><path class="cls-3" d="M666,395.42l1.76-1.5c24.22-21.06,58.53-15.62,75.1,11.91,14.68,24.39,8,56.69-15,72.93A48,48,0,0,1,669,475.52c-.9-.8-1.81-1.58-3.1-2.69-.06,1.41-.14,2.33-.14,3.25q0,22.26,0,44.52c0,4.43-.65,5.07-5,5.07-4.95,0-9.89,0-14.84,0-2.84,0-3.78-1-3.78-3.85q0-67.18,0-134.36c0-2.76,1-3.77,3.89-3.79q7.82-.06,15.64,0c3.1,0,4,1,4.11,4.18.05,2.29.05,4.59.08,6.88A5.45,5.45,0,0,0,666,395.42Zm-.33,38.81c.25,2.18.39,4.39.78,6.55A30.32,30.32,0,0,0,713,461c13.72-9,18.13-28.39,9.77-43-7.89-13.76-23.79-19.3-38-13.26C673.36,409.59,665.88,421.27,665.71,434.23Z" transform="translate(-46.65 -316.71)"/><path class="cls-3" d="M591.21,395.9c0-3.26,0-6,0-8.66,0-2.44,1.23-3.58,3.58-3.59,5.47,0,10.95,0,16.42,0,2.4,0,3.57,1.23,3.64,3.57,0,.71,0,1.41,0,2.12q0,44.9,0,89.79c0,5.11-.53,5.64-5.57,5.64-4.5,0-9,0-13.51,0-3.7,0-4.56-.85-4.57-4.45,0-2.38,0-4.76,0-7.39a3.72,3.72,0,0,0-.93.44c-24.36,23.74-63.79,16.59-79-15.84-12-25.68-2.26-57,21.87-70.44a47.87,47.87,0,0,1,55.38,6.39C589.3,394.11,590,394.78,591.21,395.9Zm-.08,37.62c-.09-.88-.25-2.64-.46-4.39-2.1-17.66-19.65-30-36.92-26-17.75,4.13-28.22,23.71-22.18,41.51,4.44,13.08,17.06,22.21,29.63,21.43C578.31,465,591,451.58,591.13,433.53Z" transform="translate(-46.65 -316.71)"/><path class="cls-3" d="M997.53,434.16c.09,29.13-24.24,53.1-54,53.23s-54.37-23.73-54.43-53S913.32,381,943.19,381,997.44,404.78,997.53,434.16Zm-23.49,0c-.43-2.69-.66-5.44-1.32-8.08-4-16.19-20.07-26.58-35.56-23.09-18.43,4.15-29.06,23.6-22.84,41.78,4.48,13.08,17.12,22.16,29.72,21.34A32,32,0,0,0,974,434.14Z" transform="translate(-46.65 -316.71)"/><path class="cls-2" d="M1048.31,415.59c5.65-9.47,11.19-18.49,16.42-27.69,1.86-3.28,4.13-4.59,7.87-4.41,5.55.27,11.12,0,16.68.14a4.73,4.73,0,0,1,3.48,1.57c.47.75-.1,2.54-.74,3.52q-14.09,21.62-28.38,43.11a3.18,3.18,0,0,0,0,4.17q14.22,21.37,28.28,42.86a10.92,10.92,0,0,1,1.21,2c.79,2.1-.24,3.86-2.47,3.89-6.8.08-13.61.2-20.39-.13-1.46-.07-3.28-1.69-4.15-3.09-5.56-8.9-10.9-17.94-16.31-26.94-.41-.67-.84-1.33-1.42-2.25l-11.93,19.85c-1.91,3.17-3.88,6.31-5.72,9.53a5.57,5.57,0,0,1-5.38,3.09c-6.18-.08-12.36,0-18.54-.09-1.14,0-2.82-.64-3.25-1.49s0-2.56.67-3.53q14.16-21.73,28.53-43.33c1.15-1.73,1.21-2.9,0-4.66q-14.1-21.14-27.94-42.45c-.76-1.18-1.33-3.14-.85-4.25.37-.86,2.5-1.32,3.86-1.35,5.65-.14,11.3.05,16.95-.11,3.12-.09,5.06,1.13,6.61,3.81,5,8.62,10.19,17.13,15.32,25.68C1047.14,413.83,1047.63,414.54,1048.31,415.59Z" transform="translate(-46.65 -316.71)"/><path class="cls-3" d="M213.16,420.71c-7.55,3.67-14.56,7-21.45,10.52a8.24,8.24,0,0,0-3.34,3.38c-3.53,6.89-6.85,13.88-10.43,21.2-1.18-2.34-2.21-4.36-3.21-6.4-1.55-3.17-3.41-6.23-4.53-9.54-2-6-6.09-9.43-11.83-11.68-5.15-2-10-4.74-15.45-7.36.94-.55,1.54-1,2.19-1.27,6.18-3,12.34-6.07,18.57-9a8,8,0,0,0,4.09-4.16c3.23-6.84,6.6-13.61,10.14-20.88,2.53,5.18,5.27,9.8,7.09,14.75a21,21,0,0,0,13.36,13.33C203.28,415.43,207.86,418.14,213.16,420.71Z" transform="translate(-46.65 -316.71)"/></svg>