<svg id="Layer_1" data-name="Layer 1" xmlns="http://www.w3.org/2000/svg" width="18.42mm" height="27.59mm" viewBox="0 0 52.21 78.21"><defs><style>.cls-1{fill:#feda45;}</style></defs><title>placeholder-1</title><path class="cls-1" d="M113.68,173.71a26.11,26.11,0,1,0-49.94,10.65h-.09l.43.75a26.08,26.08,0,0,0,1.86,3.22l21.64,37.49,21.87-37.88a26.07,26.07,0,0,0,1.4-2.42l.67-1.16h-.12A26,26,0,0,0,113.68,173.71Zm-26.11,13a13,13,0,1,1,13-13A13,13,0,0,1,87.58,186.71Z" transform="translate(-61.47 -147.6)"/></svg>