<?xml version="1.0" encoding="utf-8"?>
<!-- Generator: Adobe Illustrator 21.1.0, SVG Export Plug-In . SVG Version: 6.00 Build 0)  -->
<svg version="1.1" id="Capa_1" xmlns="http://www.w3.org/2000/svg" xmlns:xlink="http://www.w3.org/1999/xlink" x="0px" y="0px"
	 viewBox="0 0 512 512" style="enable-background:new 0 0 512 512;" xml:space="preserve">
<style type="text/css">
	.st0{fill:#FFDA44;}
</style>
<g>
	<path class="st0" d="M256,217.7c-15.5,0-28.2,12.7-28.2,28.2c0,4.1,0.8,7.9,2.5,11.5c7.1,15.4,20.6,31.7,24.5,36.3
		c0.3,0.3,0.7,0.5,1.2,0.5s0.9-0.2,1.2-0.5c4-4.6,17.5-20.9,24.5-36.3c1.6-3.6,2.5-7.5,2.5-11.5C284.2,230.3,271.5,217.7,256,217.7z
		 M256,260.5c-8.1,0-14.6-6.6-14.6-14.6c0-8.1,6.6-14.7,14.6-14.7c8.1,0,14.6,6.6,14.6,14.7C270.6,254,264.1,260.5,256,260.5z"/>
</g>
</svg>
