<?xml version="1.0" encoding="iso-8859-1"?>
<!-- Generator: Adobe Illustrator 19.0.0, SVG Export Plug-In . SVG Version: 6.00 Build 0)  -->
<svg xmlns="http://www.w3.org/2000/svg" xmlns:xlink="http://www.w3.org/1999/xlink" version="1.1" id="Capa_1" x="0px" y="0px" viewBox="0 0 477.687 477.687" style="enable-background:new 0 0 477.687 477.687;" xml:space="preserve" width="512px" height="512px">
<g>
	<g>
		<path d="M191.674,371.331c-1.022-3.373-4.131-5.68-7.656-5.68h-58.456l-22.048-58.808c-1.543-4.14-6.151-6.245-10.291-4.701    c-2.175,0.811-3.891,2.526-4.701,4.701l-22.048,58.808H8.018c-4.418-0.001-8.001,3.58-8.002,7.998    c-0.001,2.675,1.336,5.174,3.562,6.658l48,32l-19.112,54.704c-1.463,4.169,0.731,8.735,4.9,10.197    c2.377,0.834,5.007,0.5,7.1-0.901l51.552-34.376l51.56,34.4c3.67,2.46,8.639,1.48,11.1-2.19c1.406-2.097,1.739-4.733,0.9-7.114    l-19.136-54.68l48-32C191.398,378.39,192.713,374.721,191.674,371.331z" fill="#FFFFFF"/>
	</g>
</g>
<g>
	<g>
		<rect x="137.62" y="173.652" transform="matrix(0.7071 -0.7071 0.7071 0.7071 -41.7477 262.5171)" width="316.785" height="16" fill="#FFFFFF"/>
	</g>
</g>
<g>
	<g>
		<rect x="187.572" y="237.658" transform="matrix(0.7071 -0.7071 0.7071 0.7071 -82.3197 292.578)" width="248.881" height="16" fill="#FFFFFF"/>
	</g>
</g>
<g>
	<g>
		<rect x="11.572" y="189.656" transform="matrix(0.7071 -0.7071 0.7071 0.7071 -99.9267 154.0674)" width="248.881" height="16" fill="#FFFFFF"/>
	</g>
</g>
<g>
	<g>
		<rect x="236.706" y="77.633" transform="matrix(0.7071 -0.7071 0.7071 0.7071 12.091 200.4572)" width="22.624" height="16" fill="#FFFFFF"/>
	</g>
</g>
<g>
	<g>
		<rect x="123.591" y="215.651" transform="matrix(0.7071 -0.7071 0.7071 0.7071 -109.5192 182.8992)" width="84.856" height="16" fill="#FFFFFF"/>
	</g>
</g>
<g>
	<g>
		
			<rect x="167.453" y="397.661" transform="matrix(0.7071 -0.7071 0.7071 0.7071 -221.2338 277.2165)" width="113.121" height="16" fill="#FFFFFF"/>
	</g>
</g>
<g>
	<g>
		<rect x="268.42" y="313.688" transform="matrix(0.7071 -0.7071 0.7071 0.7071 -137.2518 312.0202)" width="79.192" height="16" fill="#FFFFFF"/>
	</g>
</g>
<g>
	<g>
		<rect x="348.707" y="261.649" transform="matrix(0.7071 -0.7071 0.7071 0.7071 -85.224 333.5501)" width="22.624" height="16" fill="#FFFFFF"/>
	</g>
</g>
<g>
	<g>
		<rect x="414.075" y="21.656" transform="matrix(0.7071 -0.7071 0.7071 0.7071 110.2507 325.4808)" width="67.88" height="16" fill="#FFFFFF"/>
	</g>
</g>
<g>
	<g>
		<rect x="412.707" y="125.683" transform="matrix(0.7071 -0.7071 0.7071 0.7071 29.6637 338.9815)" width="22.624" height="16" fill="#FFFFFF"/>
	</g>
</g>
<g>
	<g>
		<rect x="204.704" y="165.655" transform="matrix(0.7071 -0.7071 0.7071 0.7071 -59.5227 203.6088)" width="22.624" height="16" fill="#FFFFFF"/>
	</g>
</g>
<g>
	<g>
		<rect x="236.704" y="133.632" transform="matrix(0.7071 -0.7071 0.7071 0.7071 -27.5063 216.8575)" width="22.624" height="16" fill="#FFFFFF"/>
	</g>
</g>
<g>
</g>
<g>
</g>
<g>
</g>
<g>
</g>
<g>
</g>
<g>
</g>
<g>
</g>
<g>
</g>
<g>
</g>
<g>
</g>
<g>
</g>
<g>
</g>
<g>
</g>
<g>
</g>
<g>
</g>
</svg>
