<?xml version="1.0" encoding="iso-8859-1"?>
<svg xmlns="http://www.w3.org/2000/svg" xmlns:xlink="http://www.w3.org/1999/xlink" version="1.1" viewBox="0 0 60 60" enable-background="new 0 0 60 60" width="512px" height="512px">
  <g>
    <g>
      <path d="m45,0h-30c-2.209,0-4,1.791-4,4v52c0,2.209 1.791,4 4,4h30c2.209,0 4-1.791 4-4v-52c0-2.209-1.791-4-4-4zm0,58h-30c-1.105,0-2-0.895-2-2v-6h29c0.552,0 1-0.448 1-1 0-0.552-0.448-1-1-1h-29v-44c0-1.105 0.895-2 2-2h30c1.105,0 2,0.895 2,2v6h-29c-0.552,0-1,0.448-1,1 0,0.552 0.448,1 1,1h29v44c0,1.105-0.895,2-2,2z" fill="#FFDA44"/>
    </g>
  </g>
  <g>
    <g>
      <path d="m30,52c-1.105,0-2,0.895-2,2 0,1.105 0.895,2 2,2 1.105,0 2-0.895 2-2 0-1.105-0.895-2-2-2zm3-47h-6c-0.552,0-1,0.448-1,1s0.448,1 1,1h6c0.552,0 1-0.448 1-1s-0.448-1-1-1zm-14.358,16.715l4.073-4.073c0.375-0.375 0.375-0.983 0-1.358-0.375-0.375-0.983-0.375-1.358,0l-4.073,4.073c-0.375,0.375-0.375,0.983 0,1.358 0.376,0.375 0.983,0.375 1.358,0zm10.073-5.43c-0.375-0.375-0.983-0.375-1.358,0l-10.072,10.073c-0.375,0.375-0.375,0.983 0,1.358 0.375,0.375 0.983,0.375 1.358,0l10.073-10.073c0.374-0.376 0.374-0.983-0.001-1.358z" fill="#FFDA44"/>
    </g>
  </g>
</svg>
